PathFileType	4	(X/Y/Z)	C:\Users\Willi\Documents\Github\OpenSimMatlabBasic\ExampleData\Trials\dynamic06\marker_experimental.trc
DataRate	CameraRate	NumFrames	NumMarkers	Units	OrigDataRate	OrigDataStartFrame	OrigNumFrames
150.000000	150.000000	2	179	mm	150.000000	165	330
Frame#	Time	LFHD			LBHD			RFHD			RBHD			C7			T10			CLAV			STRN			RBAK			LSHO			LUPA			LELB			LFRA			LWRB			LWRA			LFIN			RSHO			RUPA			RELB			RFRA			RWRB			RFIN			SACR			LASI			RASI			LT1			LT2			LT3			LS1			LS2			LS3			LHEE			LTOE			RT1			RT2			RT3			RS1			RS2			RS3			RHEE			RTOE			SACO			SACA			SACL			SACP			RWRA			LM5D			RM5D			LKNE			RKNE			LANK			RANK			LKJC			RKJC			LAJC			RAJC			LTHI			RTHI			LTIB			RTIB			P_ForcePlate1			P_ForcePlate2			P_ForcePlate3			funktRKJC			funktLKJC			funktRHIP			funktLHIP			LHJC			RHJC			LKNEshank			RKNEshank			LKJCshank			RKJCshank			LHF			COP_FP1			VECTIP_FP1			RawCentreFP1			COP_FP2			VECTIP_FP2			RawCentreFP2			COP_FP3			VECTIP_FP3			RawCentreFP3			LPelvisAngles			RPelvisAngles			LFootProgressAngles			RFootProgressAngles			LHipAngles			RHipAngles			LKneeAngles			RKneeAngles			LAnkleAngles			RAnkleAngles			LFFootAngles			RFFootAngles			LAbsAnkleAngle			RAbsAnkleAngle			RNeckAngles			LNeckAngles			RSpineAngles			LSpineAngles			LShoulderAngles			LElbowAngles			LWristAngles			RShoulderAngles			RElbowAngles			RWristAngles			RThoraxAngles			LThoraxAngles			RHeadAngles			LHeadAngles			LHipPower			LKneePower			LAnklePower			RHipPower			RKneePower			RAnklePower			LWaistPower			RWaistPower			LNeckPower			RNeckPower			LShoulderPower			RShoulderPower			LElbowPower			RElbowPower			LWristPower			RWristPower			F_ForcePlate1			F_ForcePlate2			F_ForcePlate3			LHipForce			RHipForce			LKneeForce			RKneeForce			LAnkleForce			RAnkleForce			LNormalisedGRF			RNormalisedGRF			LGroundReactionForce			RGroundReactionForce			LGRF			RGRF			LWaistForce			RWaistForce			LNeckForce			RNeckForce			LShoulderForce			RShoulderForce			LElbowForce			RElbowForce			LWristForce			RWristForce			Force_FP1			RawForceFP1			Force_FP2			RawForceFP2			Force_FP3			RawForceFP3			LHipMoment			RHipMoment			LKneeMoment			RKneeMoment			LAnkleMoment			RAnkleMoment			LGroundReactionMoment			RGroundReactionMoment			LWaistMoment			RWaistMoment			LNeckMoment			RNeckMoment			LShoulderMoment			RShoulderMoment			LElbowMoment			RElbowMoment			LWristMoment			RWristMoment			RawMomentFP1			RawMomentFP2			RawMomentFP3			
		X1	Y1	Z1	X2	Y2	Z2	X3	Y3	Z3	X4	Y4	Z4	X5	Y5	Z5	X6	Y6	Z6	X7	Y7	Z7	X8	Y8	Z8	X9	Y9	Z9	X10	Y10	Z10	X11	Y11	Z11	X12	Y12	Z12	X13	Y13	Z13	X14	Y14	Z14	X15	Y15	Z15	X16	Y16	Z16	X17	Y17	Z17	X18	Y18	Z18	X19	Y19	Z19	X20	Y20	Z20	X21	Y21	Z21	X22	Y22	Z22	X23	Y23	Z23	X24	Y24	Z24	X25	Y25	Z25	X26	Y26	Z26	X27	Y27	Z27	X28	Y28	Z28	X29	Y29	Z29	X30	Y30	Z30	X31	Y31	Z31	X32	Y32	Z32	X33	Y33	Z33	X34	Y34	Z34	X35	Y35	Z35	X36	Y36	Z36	X37	Y37	Z37	X38	Y38	Z38	X39	Y39	Z39	X40	Y40	Z40	X41	Y41	Z41	X42	Y42	Z42	X43	Y43	Z43	X44	Y44	Z44	X45	Y45	Z45	X46	Y46	Z46	X47	Y47	Z47	X48	Y48	Z48	X49	Y49	Z49	X50	Y50	Z50	X51	Y51	Z51	X52	Y52	Z52	X53	Y53	Z53	X54	Y54	Z54	X55	Y55	Z55	X56	Y56	Z56	X57	Y57	Z57	X58	Y58	Z58	X59	Y59	Z59	X60	Y60	Z60	X61	Y61	Z61	X62	Y62	Z62	X63	Y63	Z63	X64	Y64	Z64	X65	Y65	Z65	X66	Y66	Z66	X67	Y67	Z67	X68	Y68	Z68	X69	Y69	Z69	X70	Y70	Z70	X71	Y71	Z71	X72	Y72	Z72	X73	Y73	Z73	X74	Y74	Z74	X75	Y75	Z75	X76	Y76	Z76	X77	Y77	Z77	X78	Y78	Z78	X79	Y79	Z79	X80	Y80	Z80	X81	Y81	Z81	X82	Y82	Z82	X83	Y83	Z83	X84	Y84	Z84	X85	Y85	Z85	X86	Y86	Z86	X87	Y87	Z87	X88	Y88	Z88	X89	Y89	Z89	X90	Y90	Z90	X91	Y91	Z91	X92	Y92	Z92	X93	Y93	Z93	X94	Y94	Z94	X95	Y95	Z95	X96	Y96	Z96	X97	Y97	Z97	X98	Y98	Z98	X99	Y99	Z99	X100	Y100	Z100	X101	Y101	Z101	X102	Y102	Z102	X103	Y103	Z103	X104	Y104	Z104	X105	Y105	Z105	X106	Y106	Z106	X107	Y107	Z107	X108	Y108	Z108	X109	Y109	Z109	X110	Y110	Z110	X111	Y111	Z111	X112	Y112	Z112	X113	Y113	Z113	X114	Y114	Z114	X115	Y115	Z115	X116	Y116	Z116	X117	Y117	Z117	X118	Y118	Z118	X119	Y119	Z119	X120	Y120	Z120	X121	Y121	Z121	X122	Y122	Z122	X123	Y123	Z123	X124	Y124	Z124	X125	Y125	Z125	X126	Y126	Z126	X127	Y127	Z127	X128	Y128	Z128	X129	Y129	Z129	X130	Y130	Z130	X131	Y131	Z131	X132	Y132	Z132	X133	Y133	Z133	X134	Y134	Z134	X135	Y135	Z135	X136	Y136	Z136	X137	Y137	Z137	X138	Y138	Z138	X139	Y139	Z139	X140	Y140	Z140	X141	Y141	Z141	X142	Y142	Z142	X143	Y143	Z143	X144	Y144	Z144	X145	Y145	Z145	X146	Y146	Z146	X147	Y147	Z147	X148	Y148	Z148	X149	Y149	Z149	X150	Y150	Z150	X151	Y151	Z151	X152	Y152	Z152	X153	Y153	Z153	X154	Y154	Z154	X155	Y155	Z155	X156	Y156	Z156	X157	Y157	Z157	X158	Y158	Z158	X159	Y159	Z159	X160	Y160	Z160	X161	Y161	Z161	X162	Y162	Z162	X163	Y163	Z163	X164	Y164	Z164	X165	Y165	Z165	X166	Y166	Z166	X167	Y167	Z167	X168	Y168	Z168	X169	Y169	Z169	X170	Y170	Z170	X171	Y171	Z171	X172	Y172	Z172	X173	Y173	Z173	X174	Y174	Z174	X175	Y175	Z175	X176	Y176	Z176	X177	Y177	Z177	X178	Y178	Z178	X179	Y179	Z179	

166	1.1	103.7000427246093	1265.723510742188	313.0979614257812	-19.91189765930179	1263.1435546875	270.2698364257812	91.51946258544916	1254.398681640625	426.0257263183593	-47.03287124633795	1256.509399414062	435.3498229980468	-76.49474334716801	1115.38818359375	341.0736999511718	-111.9117507934571	970.5073852539062	346.5240783691406	38.51049041748043	1069.448120117188	346.7494812011718	64.13812255859371	1013.22607421875	348.0400695800781	-110.6978378295899	1044.514404296875	426.0719909667968	-10.38116073608401	1083.205810546875	205.547378540039	-14.80296993255617	891.9618530273438	138.3782196044921	-2.151000261306777	829.6693725585938	121.194107055664	20.84121513366698	760.904541015625	100.3136901855468	73.42708587646483	648.8688354492188	84.31964111328122	140.6670837402344	671.3197021484375	96.16912078857419	148.9888916015625	623.4052734375	54.95970916748045	-38.93186187744146	1087.801025390625	481.1959228515624	-81.05182647705085	987.1341552734375	522.8499145507811	-125.7267684936524	839.9495239257812	542.9807739257812	-139.4450225830079	688.9395141601562	541.3220825195312	-140.5655059814454	646.1871337890625	543.0847778320312	-84.6798400878907	578.9854125976562	566.0177001953125	-112.6192245483399	769.7006225585938	364.4124450683593	6.657383918762178	729.3422241210938	241.0854187011718	29.42177009582514	724.7257080078125	467.6035156249999	-69.78123474121097	538.7786865234375	218.111328125	-148.0142211914063	446.92041015625	242.8820800781249	-83.49188995361331	439.2264099121094	236.2636260986328	-222.0462036132813	237.4261627197266	248.9812011718749	-335.3472290039063	202.0065460205078	280.3013000488281	-205.6589813232422	141.6256561279297	263.4329223632812	-333.7441711425782	87.31977844238283	344.2654418945312	-193.1721954345703	47.68221664428713	300.729248046875	51.5108680725097	524.0327758789062	494.7984313964843	47.07658386230463	409.5319519042969	471.5176391601562	93.05529785156244	431.9403076171876	474.4935607910156	128.862808227539	226.8144836425782	476.0958862304688	91.41891479492182	112.1483383178711	445.2757263183594	216.2637634277343	180.1571350097657	469.7809753417969	183.9672241210937	37.78541946411135	387.7925109863281	321.7164611816406	97.26219177246097	438.4807739257813	-78.39305114746098	758.5598754882812	364.6781616210937	-73.57141876220707	756.9835815429688	364.1614685058593	-78.90280914306645	758.6632690429688	359.6057739257812	-62.60757827758793	807.0411987304688	364.0799560546874	-67.5849914550782	642.7463989257812	542.3016967773438	-215.9927368164063	24.74266242980959	271.0483703613281	309.6958923339843	70.05693817138675	462.4401855468751	-122.4619522094727	382.5863952636719	252.8331909179687	101.900047302246	376.1168518066406	460.2594604492188	-303.3167114257813	80.74397277832033	297.3713684082031	200.9640502929687	67.41426086425784	440.3319702148438	-120.6037368774414	379.8918762207031	304.9757995605469	97.26137542724604	373.070068359375	407.7844848632812	-282.0279235839844	84.29824829101564	330.3192749023437	218.6808776855468	84.28516387939456	409.3515319824219	-82.51737976074222	526.8731079101562	215.5731811523437	44.48956298828119	523.8800048828125	503.6128234863281	-248.6886596679688	233.4953918457032	234.7945404052734	115.4011077880859	195.8678436279297	478.9207458496094	256.7200012207031	0.07899999618532701	396.4200134277344	-189.25244140625	1.84501460485758e-14	301.3137512207031	-950.1600341796875	1.404999971389795	394.6300048828124	0	0	0	0	0	0	0	0	0	0	0	0	-36.35740661621097	670.0844116210938	307.2610778808593	-26.78563308715825	667.5259399414062	408.7588500976562	-121.484359741211	381.8510437011719	255.2361450195312	89.99539184570307	391.4497680664062	463.2583618164062	-119.2112350463868	380.7984619140625	307.4213256835938	97.8627090454101	390.4898986816406	411.0900573730469	-2.135676383972168	-10.04573345184326	0.3277004063129428	256.7200012207031	0.07899999618532701	396.4200134277344	256.7200012207031	0.07899999618532701	396.4200134277344	256.7200012207031	0.07899999618532701	396.4200134277344	-189.25244140625	1.84501460485758e-14	301.3137512207031	-123.2721252441407	435.340087890625	315.6539001464844	-254.2699890136719	-0.2560999989509441	231.3000030517578	-950.1600341796875	1.404999971389795	394.6300048828124	-950.1600341796875	1.404999971389795	394.6300048828124	-254.2699890136719	-0.2560999989509441	231.3000030517578	-18.03520774841309	-5.816200733184814	-0.6723363995552082	-18.03520774841309	5.816200733184814	0.6723363995552037	-16.79651069641113	-15.3301887512207	-0.6444842219352734	15.18936443328857	-13.65514087677002	-1.842843055725095	-1.949318289756775	3.052148103713989	-0.9124847650527959	-40.78924179077148	1.097413539886474	-3.122016668319707	-12.66798305511475	-23.81863212585449	4.120859146118164	-0.08770367503166193	-42.41325759887695	-0.4546910226345036	-12.80986881256104	11.58404159545898	-2.18669676780701	8.087862968444824	22.53568077087402	2.801605463027954	-3.18055471858951e-15	-1.590277359294755e-15	1.590277359294755e-15	1.460646090778751e-31	7.951386796473775e-16	-1.192708045940846e-15	-18.31858444213867	0	-2.243379580197563e-15	2.858439207077026	0	3.500578425504179e-16	2.635185480117797	5.623981475830078	5.910205841064453	2.635185480117799	-5.623981475830078	-5.910205841064453	15.27516174316406	7.755877017974854	-0.7860982418060288	15.27516174316406	-7.755877017974854	0.7860982418060326	-0.2362136095762275	-6.878456592559814	17.8531379699707	-37.46798706054688	3.927985053105848e-13	-8.166628862604525e-15	-7.163966655731202	102.6664276123047	9.19059753417968	25.15967559814453	6.07597303390503	9.046072006225589	-39.03379440307617	3.84847129207902e-13	-6.668715375861403e-15	-4.608036518096925	87.78440093994141	4.244074821472162	-2.786870002746582	-1.487593293190002	1.917566657066345	-2.786870002746582	1.487593293190002	-1.917566657066346	-0.5653300881385799	-7.297398090362549	-3.616333723068237	-0.5653300881385808	7.297398090362549	3.616333723068237	-3.10764940532736e-33	-0.4144196212291718	2.537588313210819e-17	-2.213276621586988e-33	-0.2951508164405823	1.807277513098435e-17	4.96881396917374e-33	0.662614643573761	-4.057344511603854e-17	9.679752410068023e-35	0.01290840376168489	-7.90411767442453e-19	-7.298634916127264e-34	-0.0973307192325592	5.959787688343168e-18	2.604341344591477e-35	0.003473011311143637	-2.126606092797304e-19	-2.263386341481485e-33	-0.3018331825733185	1.848195204574366e-17	-2.263386341481485e-33	-0.3018331825733185	1.848195204574366e-17	9.546634324401825e-34	0.1273088455200195	-7.795418508461839e-18	9.546634324401825e-34	0.1273088455200195	-7.795418508461839e-18	-3.239833756838567e-34	-0.04320470243692398	2.64552502737464e-18	-3.13486527669605e-34	-0.04180489853024483	2.559811758687211e-18	3.249754306856042e-36	0.0004333699762355536	-2.653625771217176e-20	-3.927891002217115e-35	-0.005238026846200228	3.207366405523507e-19	7.594342028077757e-36	0.0010127411223948	-6.20125086952845e-20	-1.106353368232606e-35	-0.001475374097935855	9.034060832910294e-20	256.7200012207031	0.07899999618532701	396.4200134277344	-123.2721252441407	435.340087890625	315.6539001464844	-950.1600341796875	1.404999971389795	394.6300048828124	-2.135676383972168	-10.04573345184326	0.3277004063129428	-0.4726670384407043	1.995598912239075	-0.1779185384511949	-4.332629203796387	-10.49273777008057	-0.7245859503746032	0.3396394550800324	0.786867618560791	-0.3031017184257507	-11.81935214996338	1.762819766998291	0.07685469835996472	0.1019769757986069	-0.3757266998291016	-0.09086574614048	-18.67215728759766	121.4375228881836	4.059593677520742	0	0	0	1.831738591194153	11.91302108764648	0.3982461392879481	0	0	0	1.831738591194153	11.91302108764648	0.3982461392879481	0	0	0	-1.330119252204895	-6.321714878082275	0.2579548954963686	-1.330119252204895	-6.321714878082275	0.2579548954963686	0.2651787400245667	-0.7242350578308105	-0.05428227409720413	0.2651787400245667	-0.7242350578308105	-0.05428227409720413	-0.186929389834404	0.614459753036499	-0.0307466089725495	-0.1782562583684922	0.5659981966018677	0.1936011910438537	0.04859810695052147	0.2947432100772858	0.004404339939355838	0.120550274848938	0.2318654358386993	0.09934928268194199	-0.01866354793310165	0.08241763710975647	-0.005668541882187136	-0.0264867339283228	0.05797130614519119	0.04293107613921165	256.7200012207031	0.07899999618532701	396.4200134277344	0	0	0	-123.2721252441407	435.340087890625	315.6539001464844	65.98030853271484	435.340087890625	14.34014415740965	-950.1600341796875	1.404999971389795	394.6300048828124	65.98030853271484	435.340087890625	14.34014415740965	749.76123046875	-1.729760766029344	230.2970581054688	-179.430908203125	0.1129654794931431	31.34046554565428	-168.0565948486328	12.66844844818116	57.10374832153318	135.8473968505859	2.289670228958137	121.7290878295899	-1299.93408203125	-6.28297710418701	25.29061508178695	-6.98321294784546	6.49806547164917	3.746265172958373	-843.6491699218751	119.2865447998047	798.6417846679686	nan	nan	nan	587.1815795898438	176.0091247558593	-296.1422119140624	587.1815795898438	-176.0091247558593	296.1422119140626	240.8684234619141	43.42699813842772	-222.0373229980468	240.868423461914	-43.42699813842772	222.0373229980469	-42.68951034545898	-1.121699571609497	-1.67699527740479	-1.331679224967962	-8.07530307769775	46.39968490600586	1.100655794143677	-0.1439562737941741	1.656111359596253	18.54245948791504	0.08054757863283236	12.92179489135742	-1.175907135009766	-1.119170367628898e-16	-0.2293907403945924	-1.08675217628479	1.518396994479545e-15	2.420360088348389	0	0	0	-30479.7890625	4307.926757812502	28304.74609375	-30479.7890625	4307.926757812502	28304.74609375	
167	1.106666666666667	112.2107009887695	1264.504760742188	313.3882751464843	-11.36355972290042	1262.021606445312	270.4318847656249	99.8896865844726	1253.394409179688	426.3139038085937	-38.6598625183106	1255.688110351562	435.4923706054687	-68.11575317382817	1114.224731445312	341.9164123535156	-103.1789932250977	969.2421264648438	347.7355041503906	47.07767486572261	1068.4833984375	347.3463439941406	72.87944793701168	1012.393615722656	348.6807250976562	-102.0302963256837	1043.458984375	426.9152832031249	-2.890707015991236	1081.845581054688	206.3138885498046	-6.616863727569597	890.241455078125	139.9199676513671	6.545936584472641	828.032958984375	122.6436309814453	30.46499252319335	759.5569458007812	101.5612869262695	85.05296325683592	648.4833984375	84.95336914062497	151.8682098388672	672.4027709960938	95.64238739013669	160.6838684082031	624.9446411132812	54.20745849609374	-30.35242462158209	1087.187622070312	481.9198608398437	-72.33138275146491	986.4761352539062	523.5536499023436	-117.0022811889649	839.1075439453125	543.1987915039062	-131.0053863525391	688.1679077148438	541.1426391601562	-132.2283477783204	645.4241333007812	542.8424072265625	-76.59505462646491	577.8382568359375	565.2032470703125	-103.1640853881836	768.434814453125	365.4429931640624	15.70198631286618	728.0911254882812	241.5794982910156	39.35839080810541	723.50341796875	468.0387268066406	-61.49567794799808	537.9315185546875	218.3979797363281	-140.1128234863282	446.2493591308594	242.9598846435546	-75.61638641357425	438.3358154296875	236.1772918701172	-217.675048828125	238.5743865966797	248.7209320068359	-331.6282043457032	205.3996734619141	280.2631530761718	-203.3299560546875	142.366683959961	262.6326599121094	-332.2056274414063	90.57596588134767	343.6130676269531	-192.4694519042969	47.73500823974612	300.2069702148438	61.44819259643548	522.8262329101562	494.5766906738281	56.73772430419916	408.4830932617188	470.5010375976562	102.7724990844726	430.7617187500001	473.5902099609375	137.7239379882812	225.3101654052735	473.5830383300781	99.56430816650385	110.8693542480469	441.2254638671875	224.955581665039	178.4615631103516	467.3255920410156	192.0989837646484	36.95885848999026	384.1418151855469	329.6873779296874	94.86199188232425	435.4298400878907	-68.87333679199223	757.287109375	365.5175476074218	-64.05316162109379	755.7125854492188	364.9821472167968	-69.40298461914067	757.3898315429688	360.4471740722656	-53.10871887207036	805.7744140625	364.8530883789062	-59.28751373291022	641.7682495117188	542.0341796875	-215.8036041259766	24.63393211364748	270.9718627929688	317.5622558593749	67.58328247070315	459.0653381347657	-114.7880249023438	381.8287353515625	252.5847778320312	111.4739990234374	375.041259765625	458.9655456542969	-302.1470947265626	83.43380737304689	296.5925292968749	208.9338989257812	65.81391143798831	436.4863586425781	-112.841537475586	378.9132080078125	304.7122802734375	106.7823181152343	372.3697509765625	406.4748229980469	-280.6766967773438	86.35781860351564	329.4845275878906	226.931655883789	82.89518737792972	405.7843627929688	-74.14758300781253	526.12451171875	215.7461853027343	54.16145324707025	522.293212890625	503.1239318847656	-244.4658660888672	235.4035186767578	234.329116821289	123.690315246582	194.2787017822266	475.9117736816406	256.7200012207031	0.07899999618532701	396.4200134277344	-185.950912475586	1.851350679536945e-14	302.3485107421875	-950.1600341796875	1.404999971389795	394.6300048828124	0	0	0	0	0	0	0	0	0	0	0	0	-27.02887535095219	668.822509765625	307.9442443847656	-17.05869674682622	666.2769775390625	409.4039916992187	-113.9985656738282	380.7622985839844	255.364501953125	100.0442657470703	390.3359985351562	462.3151245117188	-111.5745697021485	379.3913879394531	307.5354614257812	108.1862182617187	389.8830871582031	410.1820983886719	-2.103888988494873	-10.04451465606689	0.3165013790130619	256.7200012207031	0.07899999618532701	396.4200134277344	256.7200012207031	0.07899999618532701	396.4200134277344	256.7200012207031	0.07899999618532701	396.4200134277344	-185.950912475586	1.851350679536945e-14	302.3485107421875	-114.5966720581055	435.8125305175781	316.8043518066406	-254.2699890136719	-0.2560999989509441	231.3000030517578	-950.1600341796875	1.404999971389795	394.6300048828124	-950.1600341796875	1.404999971389795	394.6300048828124	-254.2699890136719	-0.2560999989509441	231.3000030517578	-18.01057243347168	-6.027990341186523	-0.7467017173767109	-18.01057243347168	6.027990341186523	0.7467017173767064	-18.05498886108398	-15.12405395507812	-0.6057028174400343	14.68653106689453	-14.05160140991211	-2.362887620925901	-1.656509518623352	3.089787721633911	-1.191539764404297	-40.79593276977539	0.7830668687820432	-2.852446317672734	-13.58874320983887	-23.92054557800293	4.107223033905029	-0.3463215827941894	-42.85969924926758	-0.3666787147521947	-12.74820804595947	12.07336139678955	-2.284747362136843	8.223843574523926	22.61784362792969	2.860391616821289	3.18055471858951e-15	1.217205048635517e-32	1.987846699118448e-16	1.590277359294756e-15	-3.895056155633654e-31	-6.361109437179021e-15	-18.20372009277344	0	-2.229312754418935e-15	2.985602855682373	0	3.656308980736615e-16	2.40741205215454	5.862362861633301	5.907108783721924	2.407412052154542	-5.862362861633301	-5.907108783721924	15.39884090423584	7.849677085876465	-0.8630557656288133	15.39884090423584	-7.849677085876465	0.863055765628817	-0.6360875964164756	-7.990267753601073	17.71957778930664	-37.71930694580078	-1.902766789615984e-12	1.741826585455992e-15	-7.639724731445313	102.902702331543	9.436172485351554	25.33713150024414	5.882238864898683	8.682592391967777	-38.91784286499023	8.746525740818949e-15	-5.759984558696887e-15	-4.528971672058106	87.76505279541016	3.893267631530756	-2.637200593948365	-1.329525232315063	2.03537368774414	-2.637200593948364	1.329525232315063	-2.035373687744141	-0.4956033229827876	-7.356766223907471	-3.52015471458435	-0.4956033229827885	7.356766223907471	3.52015471458435	-1.863719852720732e-33	-0.2485357820987701	1.521842750104214e-17	-2.597136255171698e-33	-0.3463402986526489	2.120722690803524e-17	8.842518820989259e-33	1.17919135093689	-7.220464567535526e-17	-3.033452389171245e-34	-0.0404525101184845	2.477001851703898e-18	3.755201654155306e-34	0.05007737502455711	-3.066354851676274e-18	3.416449118307772e-35	0.004555995110422373	-2.789742414454875e-19	-2.374161041793873e-33	-0.3166055083274841	1.938649611828371e-17	-2.374161041793873e-33	-0.3166055083274841	1.938649611828371e-17	1.320680181524924e-33	0.1761188954114914	-1.078417207675252e-17	1.320680181524924e-33	0.1761188954114914	-1.078417207675252e-17	-3.013931269425348e-34	-0.04019218683242798	2.461061647753266e-18	-2.96331156446777e-34	-0.03951714932918549	2.419727521870749e-18	-1.0458204462483e-36	-0.0001394650607835501	8.539772014073287e-21	-4.464321972638615e-35	-0.005953382700681686	3.645395534244526e-19	5.481272216076179e-36	0.0007309533539228141	-4.475798426037984e-20	-1.368944100351146e-35	-0.001825551153160632	1.117827688198964e-19	256.7200012207031	0.07899999618532701	396.4200134277344	-114.5966720581055	435.8125305175781	316.8043518066406	-950.1600341796875	1.404999971389795	394.6300048828124	-2.103888988494873	-10.04451370239258	0.3165013790130619	-0.4767433106899261	2.027090549468994	-0.2392260879278185	-4.446887969970703	-10.45674610137939	-0.8186398148536681	0.2666009366512299	0.7840570211410522	-0.3172605335712433	-11.83226585388184	1.888928055763245	0.04389947280287586	0.1057168692350388	-0.3372674584388733	-0.09892106801271436	-19.99028968811035	122.4389038085938	3.986313104629506	0	0	0	1.961047410964966	12.01125621795654	0.3910573124885554	0	0	0	1.961047410964966	12.01125621795654	0.3910573124885554	0	0	0	-1.240512490272522	-6.273225784301758	0.1934924423694613	-1.240512490272522	-6.273225784301758	0.1934924423694613	0.4109780192375183	-0.5104330778121948	-0.09303639829158775	0.4109780192375183	-0.5104330778121948	-0.09303639829158775	-0.1875384747982025	0.6256012320518494	-0.04627771675586707	-0.1861445903778076	0.5746995806694031	0.1931761801242828	0.04566530138254166	0.299659937620163	-0.002494785236194742	0.1214477196335792	0.2367069125175476	0.1018972992897034	-0.01859845593571663	0.08339987695217133	-0.0036833651829511	-0.02822577767074109	0.05932308360934258	0.04376979544758796	256.7200012207031	0.07899999618532701	396.4200134277344	0	0	0	-114.5966720581055	435.8125305175781	316.8043518066406	71.35423278808594	435.8125305175781	14.45581626892088	-950.1600341796875	1.404999971389795	394.6300048828124	71.35423278808594	435.8125305175781	14.45581626892088	747.8191528320312	-0.3811662495136112	243.0001220703126	-155.8350982666016	-2.388776540756222	68.03084564208983	-179.9524841308594	19.27006912231446	69.90988922119138	111.8030776977539	1.688000440597542	121.842170715332	-1333.95458984375	-6.025903224945065	52.85765457153304	-5.561804294586183	6.678201198577881	4.167569637298583	-858.8068237304689	130.9676666259766	817.5109863281249	nan	nan	nan	710.1422729492188	209.3254699707031	-358.2799682617186	710.1422729492188	-209.3254699707031	358.2799682617189	338.2390441894532	68.58691406249999	-295.2755126953124	338.2390441894531	-68.58691406249999	295.2755126953126	-45.67724227905273	-1.262113213539123	2.06900262832641	-1.81874310970307	-8.598235130310055	47.46257019042969	-0.01448841579258464	-0.1751473993062972	1.836515784263611	18.88245964050293	0.05818060040474022	13.75903797149658	-1.07779598236084	-1.221540255260429e-16	-0.3965734541416169	-1.254196286201477	2.965980548418747e-15	2.485486507415771	0	0	0	-30963.8359375	4733.989746093752	29774.314453125	-30963.8359375	4733.989746093752	29774.314453125	
